<svg width="64" height="64" viewBox="0 0 64 64" fill="none" xmlns="http://www.w3.org/2000/svg">
<path d="M39.3449 53.312L35.1729 55.6484L35.4858 54.355L39.3449 53.312Z" fill="#141938"/>
<path d="M18.1509 7.31445L14.25 9.48394L17.1496 10.9233L19.0062 8.71211L18.1509 7.31445Z" fill="#FF858D"/>
<path d="M20.5078 41.2545C22.5521 46.5531 25.3892 51.5596 28.998 56.0863C39.324 56.0863 48.0646 48.4931 49.5039 38.2923L51.1936 26.4019L47.2927 28.5713L20.5078 41.2545Z" fill="#141938"/>
<path d="M18.1506 7.31421L17.3162 13.1552C15.9603 22.7301 17.0867 32.4094 20.5079 41.2542L47.3136 28.5711L51.2145 26.4016L36.1324 6L18.1506 7.31421Z" fill="#FF858D"/>
<path d="M21.6552 51.6013C15.2093 43.5283 12.3514 33.0355 13.7908 22.793L15.5013 10.8191L31.5639 9.65088L45.8116 28.9468L44.2054 40.2532C43.5587 44.8425 41.264 49.0564 37.7595 52.102C34.4218 55.0016 30.208 56.6496 25.7856 56.8165L21.6552 51.6013Z" fill="#FAFBFF"/>
<path d="M30.8755 11.1316L44.3096 29.322L42.7868 40.0443C42.1819 44.2998 40.0541 48.2007 36.8207 51.0169C33.9211 53.541 30.2705 55.043 26.4531 55.335L22.7607 50.7248C19.6525 46.8448 17.4205 42.4432 16.1271 37.6453C14.8129 32.8474 14.5209 27.9243 15.2093 23.0012L16.7529 12.1746L30.8755 11.1316ZM32.2523 8.16943L14.2705 9.48364L12.3931 22.6049C10.8703 33.2646 13.8116 44.0912 20.5287 52.5189L25.118 58.2555C35.4439 58.2555 44.1845 50.6623 45.6239 40.4615L47.3136 28.571L32.2523 8.16943Z" fill="#FFCA61"/>
<path d="M27.9132 36.4768L24.7216 34.6619C21.7594 32.9722 20.5703 26.276 20.5703 26.276C20.9249 23.6893 23.7828 22.2708 26.0566 23.5642C28.0801 24.7115 29.2066 26.9644 28.8937 29.2591L27.9132 36.4768Z" fill="#FF1C44"/>
<path d="M30.7501 37.9996L27.9131 36.3933L28.8518 29.5928C29.123 27.5902 31.3342 26.4846 33.1074 27.4859C35.7775 28.9879 37.2586 31.9709 36.8414 34.9957C36.445 37.8744 33.2742 39.439 30.7501 37.9996Z" fill="#FF1C44"/>
<path d="M27.2245 41.1707C24.0955 36.4145 19.7982 31.0325 20.5909 26.1094L36.7577 35.3923C36.3197 38.5422 31.1463 39.9399 27.2245 41.1707Z" fill="#FF1C44"/>
</svg>
