<svg width="576" height="472" viewBox="0 0 576 472" fill="none" xmlns="http://www.w3.org/2000/svg">
<mask id="mask0" mask-type="alpha" maskUnits="userSpaceOnUse" x="0" y="0" width="576" height="472">
<rect width="576" height="472" fill="#C4C4C4"/>
</mask>
<g mask="url(#mask0)">
<path d="M9.44324 422.143C9.89471 422.143 10.3461 421.946 10.5718 421.748L53.9102 372.541H542.316L585.654 421.748C586.105 422.341 587.008 422.341 587.46 421.946C588.137 421.55 588.137 420.76 587.685 420.365L543.444 370.368H52.5558L8.31464 420.365C7.86316 420.958 7.86322 421.55 8.54034 421.946C8.99182 422.143 9.21753 422.143 9.44324 422.143Z" fill="#101249"/>
<path d="M563.135 408.114C563.361 408.114 563.812 408.114 564.038 407.917C564.715 407.521 564.715 406.731 564.264 406.336L532.437 370.172H69.032L39.237 403.964C38.7855 404.557 38.7856 405.15 39.4627 405.545C40.1399 405.94 40.817 405.94 41.2684 405.348L70.3864 372.543H530.857L562.006 407.719C562.232 408.114 562.684 408.114 563.135 408.114Z" fill="#101249"/>
<path d="M461.056 397.371H523.541C523.911 397.371 524.281 396.779 524.281 396.186C524.281 395.593 523.911 395 523.541 395H461.056C460.686 395 460.317 395.593 460.317 396.186C460.317 396.779 460.686 397.371 461.056 397.371Z" fill="#101249"/>
<path d="M105.151 405.94H289.113C289.79 405.94 290.468 405.347 290.468 404.755C290.468 404.162 289.79 403.569 289.113 403.569H105.151C104.474 403.569 103.797 404.162 103.797 404.755C103.797 405.347 104.248 405.94 105.151 405.94Z" fill="#101249"/>
<path d="M333.743 392.371H401.685C402.362 392.371 403.039 391.779 403.039 391.186C403.039 390.593 402.362 390 401.685 390H333.743C333.066 390 332.389 390.593 332.389 391.186C332.389 391.779 333.066 392.371 333.743 392.371Z" fill="#101249"/>
<path d="M334.295 418.601C334.746 418.601 335.423 418.601 335.875 418.601H337.68H381.696C382.373 418.601 383.05 418.008 383.05 417.415C383.05 416.822 382.373 416.229 381.696 416.229H335.875C330.006 416.229 326.846 416.229 322.331 413.067C321.88 412.672 321.429 412.277 320.977 411.882C319.171 410.301 316.914 408.325 312.4 408.325C308.111 408.325 306.305 410.301 304.725 412.079C302.919 414.056 301.114 416.032 295.696 416.032C290.956 416.032 242.652 416.032 242.201 416.032C241.524 416.032 240.846 416.625 240.846 417.217C240.846 417.81 241.524 418.403 242.201 418.403C242.652 418.403 290.956 418.403 295.696 418.403C295.696 418.403 295.696 418.403 295.922 418.403C302.694 418.403 305.177 415.637 306.982 413.463C308.562 411.684 309.691 410.499 312.625 410.499C316.011 410.499 317.591 411.882 319.171 413.463C319.623 413.858 320.074 414.253 320.751 414.648C325.266 418.403 328.877 418.601 334.295 418.601Z" fill="#101249"/>
<path d="M389.728 403.892H447.061C447.738 403.892 448.415 403.3 448.415 402.707C448.415 402.114 447.738 401.521 447.061 401.521H389.728C389.051 401.521 388.373 402.114 388.373 402.707C388.373 403.3 388.825 403.892 389.728 403.892Z" fill="#101249"/>
<path d="M533.195 420.976C533.872 420.976 534.323 420.581 534.323 419.988C534.323 419.395 533.872 419 533.195 419H496.854C496.177 419 495.725 419.395 495.725 419.988C495.725 420.581 496.177 420.976 496.854 420.976H533.195Z" fill="#101249"/>
<path d="M496.637 302.014C500.732 300.048 502.371 298.901 501.715 293.659C500.896 288.089 503.19 283.338 507.449 281.208C512.036 278.915 513.511 276.785 515.313 272.526C517.279 268.266 519.736 267.283 520.719 266.956C522.193 266.464 524.159 267.119 525.142 268.43C525.634 269.249 527.108 271.379 525.961 275.966C524.815 280.553 524.651 283.01 526.944 287.597C529.074 291.857 527.927 296.935 523.995 300.867C520.227 304.471 520.883 306.601 523.012 310.533C524.487 313.318 528.419 318.888 521.538 327.57C514.657 336.253 501.715 332.158 501.715 332.158C501.715 332.158 487.79 327.407 487.627 316.43C487.299 305.29 493.852 303.325 496.637 302.014Z" fill="#17E2D5"/>
<path d="M448.635 322.653C450.601 319.213 451.256 317.574 448.144 314.134C444.867 310.53 444.048 305.943 446.178 302.339C448.471 298.407 448.308 296.277 447.652 292.182C446.997 288.086 448.308 286.284 448.799 285.629C449.618 284.482 451.42 283.991 452.731 284.482C453.55 284.81 455.68 285.629 457.154 289.561C458.628 293.329 459.775 295.294 463.707 297.424C467.311 299.39 469.113 303.649 468.13 308.564C467.311 313.151 468.622 314.298 472.062 316.1C474.519 317.411 480.089 319.377 479.434 329.042C478.779 338.708 467.311 342.312 467.311 342.312C467.311 342.312 455.024 345.752 449.291 337.889C443.557 329.697 447.161 325.11 448.635 322.653Z" fill="#17E2D5"/>
<path d="M459.941 261.22C463.381 257.124 464.528 254.831 460.596 250.244C456.501 245.165 456.337 239.268 459.777 234.844C463.545 230.093 463.873 227.145 463.381 221.902C463.054 216.66 465.183 214.203 466.003 213.383C467.313 212.073 469.934 211.581 471.736 212.4C472.719 212.892 475.504 214.366 476.979 219.445C478.453 224.523 479.6 227.145 484.678 230.421C489.429 233.37 491.068 239.104 488.938 245.329C486.972 251.063 488.774 252.701 493.361 255.486C496.638 257.452 504.01 260.729 501.552 273.179C498.931 285.63 482.549 288.906 482.549 288.906C482.549 288.906 464.692 292.019 458.139 281.043C451.586 269.903 457.484 264.333 459.941 261.22Z" fill="#17E2D5"/>
<path d="M488.608 380.484C489.099 380.484 489.591 380.156 489.591 379.665C495.488 336.743 516.949 288.087 517.113 287.596C517.277 287.104 517.113 286.449 516.622 286.285C516.13 286.121 515.475 286.285 515.311 286.777C515.147 287.268 493.686 336.251 487.625 379.337C487.625 379.829 487.953 380.32 488.608 380.484Z" fill="#101249"/>
<path d="M481.232 378.191C481.724 378.191 482.215 377.863 482.215 377.372C489.587 309.057 477.137 247.46 473.041 230.094C473.041 229.767 472.877 229.603 472.877 229.603C472.877 229.111 472.386 228.784 472.058 228.784C471.567 228.784 471.075 229.111 470.911 229.603C470.911 229.767 470.911 229.767 471.075 230.586C475.007 247.787 487.458 309.221 480.085 377.208C480.249 377.7 480.577 378.191 481.232 378.191Z" fill="#101249"/>
<path d="M473.533 359.024C473.696 359.024 473.696 359.024 473.86 359.024C474.352 358.861 474.679 358.369 474.516 357.714C474.352 357.386 462.065 317.905 455.84 298.737C455.676 298.246 455.184 297.918 454.529 298.082C454.038 298.246 453.71 298.737 453.874 299.393C459.935 318.56 472.386 358.041 472.55 358.369C472.714 358.697 473.205 359.024 473.533 359.024Z" fill="#101249"/>
<path d="M471.324 395.462L493.398 395.511C498.224 395.525 502.144 391.618 502.158 386.791L502.241 352.109L462.697 352.018L462.614 386.7C462.6 391.528 466.498 395.455 471.324 395.462Z" fill="#101249"/>
<path d="M319.421 24H222V160.263H319.421V24Z" fill="#4D4DED"/>
<path d="M310.365 35.325H230.57V127.632H310.365V35.325Z" fill="#5A5AFA"/>
<path d="M310.365 134.157H230.57V149.742H310.365V134.157Z" fill="#5A5AFA"/>
<path d="M271.254 79.6776C271.133 79.4112 270.047 72.3516 269.564 70.7532C269.202 69.0216 268.598 67.956 268.236 67.29C267.873 66.624 267.27 64.0932 267.27 63.8268C267.27 63.5604 266.908 62.0952 266.908 60.8964C266.908 59.6976 266.184 57.6996 265.338 56.7672C264.493 55.8348 262.803 55.968 262.803 55.968C262.32 55.968 259.906 53.8369 259.906 53.8369L259.785 52.7713C260.027 52.7713 260.389 52.7713 260.872 52.7713C261.717 52.7713 261.475 51.7057 261.355 51.4393L261.717 51.0397V50.9065L261.476 50.6401L261.837 50.3737V50.2405L261.717 49.7077L262.2 49.5745C262.562 49.4413 262.32 49.1749 262.32 49.1749C262.32 49.1749 261.234 47.4433 261.355 47.3101C261.475 47.0437 261.476 46.7773 261.476 46.7773C261.476 46.5109 260.751 44.7793 260.751 44.7793C260.389 43.9801 258.94 42.5149 256.526 42.5149C254.111 42.5149 253.387 45.3121 253.387 46.5109C253.387 47.9761 255.198 51.7057 255.198 51.7057L255.077 53.7037C255.077 53.7037 252.663 55.7017 252.18 55.8349C252.18 55.8349 250.49 55.8348 249.645 56.634C248.8 57.5664 248.075 59.5644 248.075 60.7632C248.075 61.962 247.713 63.4272 247.713 63.6936C247.713 63.96 247.11 66.4908 246.747 67.1568C246.385 67.8228 245.903 68.8884 245.42 70.62C245.058 72.3516 243.85 79.4112 243.729 79.5444C243.729 79.5444 242.885 79.8108 242.039 80.8764C241.436 81.6756 240.108 83.5404 240.108 83.5404C240.108 83.5404 240.591 84.2064 241.436 83.1408C241.436 83.1408 242.16 82.3416 242.281 82.3416L242.16 82.8744C242.16 82.8744 242.16 82.8744 242.16 83.0076L240.832 86.4708C240.832 86.604 240.832 86.8703 240.953 86.8703C241.074 87.0035 241.315 86.8704 241.315 86.7372L242.522 84.0732C242.643 84.0732 242.643 84.2064 242.764 84.2064L242.039 87.5363C242.039 87.6695 242.039 87.9359 242.281 87.9359C242.402 87.9359 242.643 87.936 242.643 87.6696L243.488 84.4728C243.609 84.4728 243.609 84.4728 243.729 84.4728L243.247 87.4032C243.247 87.5364 243.367 87.6696 243.488 87.8028C243.609 87.8028 243.85 87.8027 243.85 87.5363L244.575 84.4728C244.695 84.4728 244.695 84.4728 244.816 84.3396L244.575 86.7372C244.575 86.8704 244.695 87.0036 244.816 87.0036C244.937 87.0036 245.057 86.8704 245.057 86.7372L245.42 83.5404L245.782 81.8088C245.782 81.8088 246.023 81.1428 245.782 80.2104C245.782 80.2104 248.92 72.2184 249.162 71.286C249.283 71.0196 249.645 69.1548 249.645 68.8884C249.766 68.4888 250.852 65.5584 251.214 65.1588C251.214 65.1588 251.818 71.0196 251.818 71.952C251.939 75.5484 250.49 81.5424 250.611 83.5404C250.611 83.5404 250.249 86.0712 250.611 90.7331C250.852 92.9975 250.852 98.0591 250.973 98.5919C251.093 99.7907 250.852 102.588 250.973 104.053C251.093 105.518 252.421 113.51 252.301 113.777C252.301 114.176 252.059 114.709 252.301 114.975C252.301 114.975 252.059 117.107 251.818 117.24L250.973 118.439C250.731 119.105 251.576 119.105 251.576 119.105L254.353 118.971C254.353 118.971 254.956 118.838 254.956 117.773C254.956 117.506 254.353 115.508 254.353 114.842C254.353 114.576 254.836 113.91 254.474 113.244C254.232 112.711 254.474 108.715 254.594 108.315C254.715 107.916 255.801 103.92 254.956 100.99C254.956 100.99 254.957 99.6575 255.077 98.8583C255.198 98.1923 256.526 88.0691 256.526 86.604C256.526 85.1388 256.526 83.4072 256.526 83.4072C256.526 83.4072 256.888 83.5404 257.25 83.5404C257.612 83.5404 257.974 83.4072 257.974 83.4072C257.974 83.4072 257.974 85.1388 257.974 86.604C257.974 88.0691 259.302 98.1923 259.423 98.8583C259.544 99.5243 259.544 100.99 259.544 100.99C258.699 104.053 259.785 107.916 259.906 108.315C260.027 108.715 260.268 112.711 260.027 113.244C259.664 114.043 260.147 114.709 260.147 114.842C260.147 115.508 259.544 117.506 259.544 117.773C259.544 118.838 260.147 118.971 260.147 118.971L262.924 119.105C262.924 119.105 263.769 119.105 263.528 118.439L262.683 117.24C262.562 117.107 262.2 114.975 262.2 114.975C262.441 114.576 262.2 114.043 262.2 113.777C262.2 113.377 263.407 105.385 263.528 104.053C263.648 102.588 263.407 99.7907 263.528 98.5919C263.648 98.0591 263.648 92.9975 263.89 90.7331C264.373 86.0712 263.89 83.5404 263.89 83.5404C264.011 81.5424 262.562 75.8148 262.683 71.952C262.683 71.0196 263.286 65.1588 263.286 65.1588C263.648 65.5584 264.735 68.4888 264.855 68.8884C264.855 69.1548 265.338 70.8864 265.338 71.286C265.58 72.2184 268.719 80.2104 268.719 80.2104C268.477 81.0096 268.719 81.8088 268.719 81.8088L269.081 83.5404L269.443 86.7372C269.443 86.8704 269.563 87.0036 269.684 87.0036C269.805 87.0036 269.926 86.8704 269.926 86.7372L269.684 84.3396C269.805 84.3396 269.805 84.4728 269.926 84.4728L270.65 87.5363C270.65 87.6695 270.892 87.8028 271.012 87.8028C271.133 87.8028 271.254 87.5364 271.254 87.4032L270.771 84.4728C270.892 84.4728 271.012 84.4728 271.012 84.4728L271.857 87.6696C271.857 87.8027 272.099 87.9359 272.219 87.9359C272.34 87.9359 272.461 87.6695 272.461 87.5363L271.737 84.2064C271.857 84.2064 271.857 84.0732 271.978 84.0732L273.185 86.7372C273.306 86.8704 273.427 87.0035 273.547 86.8703C273.668 86.7371 273.789 86.604 273.668 86.4708L272.34 83.0076C272.34 83.0076 272.34 83.0076 272.34 82.8744L272.219 82.3416C272.34 82.3416 273.064 83.1408 273.064 83.1408C273.789 84.2064 274.392 83.5404 274.392 83.5404C274.392 83.5404 273.064 81.6756 272.461 80.8764C272.099 79.944 271.254 79.6776 271.254 79.6776Z" fill="#3D3DDD"/>
<path d="M296.604 49.8389C292.62 49.8389 289.241 53.4353 289.241 57.8308C289.241 62.2264 292.5 65.8228 296.604 65.8228C300.709 65.8228 303.968 62.2264 303.968 57.8308C303.847 53.5685 300.588 49.8389 296.604 49.8389ZM296.604 64.7572C293.224 64.7572 290.448 61.6936 290.448 57.964C290.448 54.2344 293.224 51.1709 296.604 51.1709C299.984 51.1709 302.761 54.2344 302.761 57.964C302.64 61.6936 299.984 64.7572 296.604 64.7572Z" fill="#3D3DDD"/>
<path d="M296.604 73.4148C292.62 73.4148 289.24 77.0112 289.24 81.4068C289.24 85.8024 292.499 89.3988 296.604 89.3988C300.708 89.3988 303.967 85.8024 303.967 81.4068C303.847 77.0112 300.587 73.4148 296.604 73.4148ZM296.604 88.2C293.223 88.2 290.447 85.1364 290.447 81.4068C290.447 77.6772 293.223 74.6136 296.604 74.6136C299.984 74.6136 302.76 77.6772 302.76 81.4068C302.76 85.1364 299.984 88.2 296.604 88.2Z" fill="#3D3DDD"/>
<path d="M296.604 96.9905C292.62 96.9905 289.24 100.587 289.24 104.982C289.24 109.378 292.499 112.974 296.604 112.974C300.708 112.974 303.967 109.378 303.967 104.982C303.847 100.587 300.587 96.9905 296.604 96.9905ZM296.604 111.776C293.223 111.776 290.447 108.712 290.447 104.982C290.447 101.253 293.223 98.1893 296.604 98.1893C299.984 98.1893 302.76 101.253 302.76 104.982C302.64 108.712 299.984 111.776 296.604 111.776Z" fill="#3D3DDD"/>
<path d="M289.844 57.2998H257.491V58.6318H289.844V57.2998Z" fill="#3D3DDD"/>
<path d="M289.845 80.3447H270.409V81.6767H289.845V80.3447Z" fill="#3D3DDD"/>
<path d="M289.843 104.322H261.716V105.654H289.843V104.322Z" fill="#3D3DDD"/>
<path opacity="0.15" d="M262.311 433.766C268.915 432.501 319.107 423.267 318.05 410.364C317.522 403.533 215.289 404.039 205.074 405.81C194.419 407.581 183.853 410.744 173.11 411.123C134.893 412.768 112.351 400.624 64.2722 408.214C41.3775 411.756 73.6061 430.857 82.4998 434.398C106.803 444.139 109.621 443.253 151.536 439.205C180.506 436.422 253.505 435.41 262.311 433.766Z" fill="#001177"/>
<path d="M276.493 363.187C276.885 366.826 281.101 412.962 281.493 415.951C281.885 418.94 275.905 419.85 275.316 414.912C272.963 403.085 264.923 362.667 264.923 362.667" fill="#BDBDFF"/>
<path d="M139.034 365.525C139.034 365.525 133.151 419.329 132.465 422.448C131.778 425.567 126.288 425.567 125.503 420.888C126.288 400.354 128.641 362.016 128.641 362.016" fill="#BDBDFF"/>
<path d="M86.9706 363.836C86.9706 363.836 83.0488 406.593 82.7547 408.412C82.3625 411.661 77.1661 411.661 76.5778 407.373C76.97 393.597 78.8328 354.609 78.8328 354.609" fill="#BDBDFF"/>
<path d="M233.742 365.655V405.033C233.742 409.582 226.78 408.152 226.78 405.033C225.604 388.658 223.643 371.244 223.643 371.244" fill="#BDBDFF"/>
<path d="M303.357 303.273C303.357 303.273 295.709 354.997 294.827 360.455C294.042 365.913 289.924 377.87 275.12 381.119C260.315 384.368 125.405 395.544 125.405 395.544C125.405 395.544 80.1078 387.617 74.8134 383.068C70.5975 379.429 67.7542 370.982 66.8717 363.184C65.5972 352.008 52.7533 223.737 51.9689 217.759C51.1845 211.78 50.7923 199.694 59.0281 198.524C67.2639 197.485 226.195 194.236 233.941 194.756C240.902 194.756 243.451 203.593 244.726 212.3C246 221.008 255.314 288.717 255.314 288.717C255.314 288.717 296.101 293.656 299.337 294.695C302.572 295.865 303.749 298.204 303.357 303.273Z" fill="#6868FF"/>
<path d="M54.3195 201.122C58.7315 203.201 60.2022 205.02 60.2022 205.02C81.2819 221.395 90.3021 284.816 90.3021 284.816C90.3021 284.816 111.676 294.433 118.833 300.411C125.696 306 125.99 318.606 125.99 318.606L131.285 395.152C127.559 395.412 125.402 395.672 125.402 395.672C125.402 395.672 80.1054 387.745 74.8109 383.196C70.595 379.557 67.7517 371.11 66.8693 363.312C65.5947 352.136 52.7508 223.865 51.9664 217.886C51.3781 213.208 50.9859 205.28 54.3195 201.122Z" fill="#6868FF"/>
<path d="M125.991 318.473C125.893 313.274 124.815 308.076 122.364 303.657C121.775 302.617 121.089 301.578 120.305 300.798C119.52 299.888 118.638 299.238 117.755 298.589C115.991 297.289 114.226 296.119 112.461 294.95C108.931 292.74 105.304 290.791 101.676 288.842C98.0483 286.892 94.3226 285.073 90.695 283.383L91.4793 284.553C90.4008 277.015 88.9302 269.607 87.3614 262.2C85.6947 254.922 83.7338 247.644 81.3807 240.626C80.2041 237.117 78.9296 233.608 77.5569 230.359C76.1843 226.98 74.6156 223.731 72.9488 220.612C69.6153 214.374 65.4974 208.656 60.301 205.017C65.1052 209.306 68.6348 215.284 71.6742 221.652C74.7136 228.02 77.1647 234.908 79.3217 241.796C81.4787 248.814 83.3416 255.962 85.0083 263.109C86.6751 270.257 88.1458 277.665 89.3223 285.073L89.4204 285.982L90.0086 286.242C93.7343 287.932 97.362 289.621 101.088 291.311C104.715 293 108.441 294.95 111.971 296.899C113.736 297.809 115.5 298.978 117.265 300.148C119.03 301.318 120.501 302.617 121.775 304.567C124.128 308.336 125.501 313.404 125.991 318.473Z" fill="#5144E6"/>
<path d="M144.977 328.22C147.457 327.437 244.318 324.044 246.798 325.219C249.277 326.393 272.713 337.095 274.152 345.186L165.693 370.243C159.215 372.201 152.976 363.066 148.817 358.237C144.657 353.408 143.058 348.971 142.578 341.01C142.098 333.18 142.578 329.003 144.977 328.22Z" fill="#8B8BFF"/>
<path d="M129.683 301.491C134.721 299.93 148.641 310.725 148.983 314.887C149.41 319.829 150.605 352.994 151.801 362.878C152.996 372.763 155.9 375.234 159.145 374.584C162.39 373.933 266.917 373.543 271.016 371.722C275.115 369.902 278.36 365.48 278.702 362.488C279.129 359.367 280.751 333.095 283.569 312.025C285.192 300.32 304.492 291.606 303.382 301.881C303.382 301.881 296.721 364.049 295.952 369.511C295.269 374.974 291.682 386.939 278.787 390.191C265.892 393.442 164.781 395.653 159.572 396.304C156.925 396.564 152.484 396.824 148.385 395.783C142.407 394.223 136.941 389.28 133.867 373.023C133.099 368.991 126.608 317.748 126.181 309.684C125.925 304.612 127.035 302.271 129.683 301.491Z" fill="#5144E6"/>
<path d="M273.873 345.207C274.589 348.686 273.794 359.657 272.998 362.868C272.202 366.08 269.814 369.157 265.994 369.96C262.254 370.629 169.142 371.565 166.516 372.101C163.889 372.502 157.848 369.826 156.734 360.862C155.619 351.897 153.875 344.538 158.173 342.933C162.55 341.327 265.517 341.059 268.78 341.327C272.043 341.327 273.396 342.799 273.873 345.207Z" fill="#5144E6"/>
<path d="M209.861 230.394C208.267 230.394 206.974 229.324 206.974 228.004C206.974 226.683 208.267 225.613 209.861 225.613C211.455 225.613 212.748 226.683 212.748 228.004C212.748 229.324 211.455 230.394 209.861 230.394Z" fill="#5144E6"/>
<path d="M121.194 232.27C119.6 232.27 118.307 231.199 118.307 229.879C118.307 228.558 119.6 227.488 121.194 227.488C122.788 227.488 124.081 228.558 124.081 229.879C124.081 231.199 122.788 232.27 121.194 232.27Z" fill="#5144E6"/>
<path d="M212.641 248.409C211.047 248.409 209.755 247.338 209.755 246.018C209.755 244.698 211.047 243.627 212.641 243.627C214.236 243.627 215.528 244.698 215.528 246.018C215.528 247.338 214.236 248.409 212.641 248.409Z" fill="#5144E6"/>
<path d="M123.978 250.289C122.383 250.289 121.091 249.219 121.091 247.899C121.091 246.578 122.383 245.508 123.978 245.508C125.572 245.508 126.864 246.578 126.864 247.899C126.864 249.219 125.572 250.289 123.978 250.289Z" fill="#5144E6"/>
<path d="M215.94 269.5C214.346 269.5 213.053 268.43 213.053 267.11C213.053 265.789 214.346 264.719 215.94 264.719C217.534 264.719 218.827 265.789 218.827 267.11C218.827 268.43 217.534 269.5 215.94 269.5Z" fill="#5144E6"/>
<path d="M168.003 230.394C166.409 230.394 165.117 229.324 165.117 228.004C165.117 226.683 166.409 225.613 168.003 225.613C169.598 225.613 170.89 226.683 170.89 228.004C170.89 229.324 169.598 230.394 168.003 230.394Z" fill="#5144E6"/>
<path d="M170.785 248.409C169.19 248.409 167.898 247.338 167.898 246.018C167.898 244.698 169.19 243.627 170.785 243.627C172.379 243.627 173.671 244.698 173.671 246.018C173.671 247.338 172.379 248.409 170.785 248.409Z" fill="#5144E6"/>
<path d="M173.979 269.5C172.385 269.5 171.092 268.43 171.092 267.11C171.092 265.789 172.385 264.719 173.979 264.719C175.573 264.719 176.866 265.789 176.866 267.11C176.866 268.43 175.573 269.5 173.979 269.5Z" fill="#5144E6"/>
<path d="M127.173 271.379C125.578 271.379 124.286 270.308 124.286 268.988C124.286 267.668 125.578 266.597 127.173 266.597C128.767 266.597 130.059 267.668 130.059 268.988C130.059 270.308 128.767 271.379 127.173 271.379Z" fill="#5144E6"/>
<path d="M255.215 288.72C252.47 289.499 249.921 291.319 247.862 293.918C245.705 296.387 244.234 299.896 243.548 303.665C243.352 304.575 243.352 305.615 243.254 306.524C243.156 307.434 243.156 308.344 243.058 309.253L242.764 314.712C242.568 318.351 242.372 321.99 242.175 325.628C243.058 322.12 243.646 318.611 244.038 314.972C244.234 313.152 244.431 311.333 244.627 309.513C244.725 308.604 244.725 307.694 244.823 306.784C244.921 305.874 245.019 305.095 245.117 304.185C245.313 303.405 245.411 302.496 245.705 301.716L246.097 300.546L246.587 299.376C246.882 298.597 247.274 297.947 247.568 297.167C247.96 296.517 248.352 295.738 248.843 295.088C250.509 292.489 252.764 290.409 255.215 288.72Z" fill="#5144E6"/>
<path d="M256.285 393.596L271.36 392.037C271.36 392.037 271.49 398.795 274.349 404.123C267.201 405.033 268.761 409.582 258.364 410.621C257.714 402.694 256.285 393.596 256.285 393.596Z" fill="#FFBEAF"/>
<path d="M274.35 404.124C276.169 407.503 278.898 410.232 283.317 410.232C284.747 410.492 286.176 417.51 287.476 417.9C290.335 422.319 280.068 414.521 270.841 417.12C260.834 419.72 258.625 416.6 258.625 416.6C258.625 414.911 258.495 412.832 258.235 410.752C268.761 409.583 267.202 405.034 274.35 404.124Z" fill="#101249"/>
<path d="M305.018 424.397C305.018 424.397 303.978 407.892 279.546 403.993C279.546 403.993 270.578 411.401 267.329 427.646C267.329 427.646 296.181 434.794 305.018 424.397Z" fill="#BFC6F2"/>
<path d="M186.885 259.091C186.495 268.838 186.885 277.936 189.354 285.084L202.87 279.495C194.553 243.236 193.123 228.811 181.946 224.522L186.885 259.091Z" fill="#DEDBFF"/>
<path d="M168.822 326.801L239.001 340.187C239.001 340.187 238.091 341.486 240.041 342.656C240.56 342.916 243.03 343.176 243.03 343.176C240.69 364.879 256.026 376.966 255.636 396.2C259.535 396.72 267.202 396.33 273.44 393.211C270.191 372.027 266.293 333.949 262.654 328.23C254.076 314.325 191.955 299.509 191.955 299.509L187.017 293.531L161.934 295.74L168.692 317.314L168.822 326.801Z" fill="#101249"/>
<path d="M214.176 420.11C216.515 415.691 230.291 415.951 230.291 415.951L246.406 421.539L240.948 428.037L240.428 429.727L239.648 429.597L238.738 430.637C238.738 430.637 227.952 427.388 222.623 426.218C218.465 425.308 214.436 424.139 214.306 422.189L214.176 420.11Z" fill="#E1E4F4"/>
<path d="M225.353 409.191C226.393 401.134 224.963 391.777 224.963 391.777L238.869 390.217C238.869 390.217 238.219 398.664 240.169 405.162C237.05 406.982 231.591 409.321 225.353 409.191Z" fill="#FFBEAF"/>
<path d="M225.353 409.194C231.591 409.194 237.049 406.984 240.168 405.165C241.598 410.104 244.587 413.872 250.305 412.443C251.605 412.833 249.785 427.128 250.955 427.648C253.424 432.457 238.089 424.009 228.732 425.569C218.595 427.128 223.923 415.042 223.923 415.042C224.703 413.223 225.093 411.273 225.353 409.194Z" fill="#101249"/>
<path d="M277.467 426.741C277.467 426.741 276.428 409.846 251.345 405.817C251.345 405.817 242.118 413.355 238.869 429.99C238.869 429.99 273.179 428.82 277.467 426.741Z" fill="#E1E4F4"/>
<path d="M163.103 339.926C194.293 342.265 218.596 343.435 218.596 343.435C218.596 343.435 219.375 345.774 219.895 346.164C220.415 346.554 222.235 346.424 222.235 346.424C219.635 356.041 220.675 372.286 223.794 396.199C232.112 399.188 237.57 396.199 240.039 396.199C236.66 372.156 256.674 338.626 246.537 328.23C237.57 319.002 200.011 305.227 182.987 304.057L171.68 294.96L153.615 313.934L149.847 320.952C149.977 321.082 155.305 339.406 163.103 339.926Z" fill="#101249"/>
<path d="M239.389 294.306C226.003 293.136 203.65 296.775 197.932 295.345C193.903 294.306 188.834 290.147 187.535 288.327C187.015 287.548 188.964 281.699 193.123 280.53C194.033 280.27 197.802 279.88 198.841 279.36C204.56 276.631 222.624 280.14 234.97 281.31C242.378 280.92 247.057 293.916 239.389 294.306Z" fill="#DEDBFF"/>
<path d="M213.917 182.152C213.917 182.152 209.888 202.296 216.646 204.246C216.646 204.246 211.578 211.393 203.52 208.664C203.52 208.664 205.34 211.523 207.419 211.913C207.419 211.913 202.091 215.942 197.802 214.513C196.892 214.253 181.947 217.632 180.647 218.021C158.684 225.429 147.637 213.733 153.746 205.935C164.012 192.939 213.917 182.152 213.917 182.152Z" fill="#101249"/>
<path d="M124.635 90.53C124.635 90.53 91.3654 101.447 96.4339 145.243C98.3833 162.528 103.322 174.225 114.758 189.17C114.758 189.17 116.448 194.238 109.69 197.357C105.531 199.307 102.672 195.798 102.672 195.798C102.672 195.798 103.972 215.942 123.986 207.884C123.986 207.884 142.57 221.27 155.176 213.992C167.782 206.715 145.299 194.628 145.299 194.628L124.635 90.53Z" fill="#101249"/>
<path d="M160.762 215.42C160.762 215.42 153.485 213.341 148.156 218.279L157.643 225.817L160.762 215.42Z" fill="#BFC6F2"/>
<path d="M171.419 212.038L171.159 222.955L179.217 225.424L168.95 235.171L150.626 224.514L156.864 221.525L157.254 198.392L171.419 212.038Z" fill="#FFBEAF"/>
<path d="M171.289 220.487C171.289 220.487 161.152 219.317 157.123 215.029L157.513 190.466L171.679 209.7L171.289 220.487Z" fill="#E3747B"/>
<path d="M190.121 253.413L193.645 277.809C193.645 277.809 194.458 283.502 195.271 287.568L187.139 286.755L183.073 255.943L190.121 253.413Z" fill="#8282FF"/>
<path d="M157.124 221.789C163.232 223.218 170.77 229.326 170.77 229.326C170.77 229.326 173.109 224.258 172.589 223.088C174.019 223.478 180.127 225.947 180.127 225.947C180.127 225.947 186.625 240.503 187.664 246.221C187.794 248.56 186.365 272.733 186.365 272.733C186.365 272.733 187.924 283.13 192.083 299.635C184.805 307.173 151.275 308.602 142.568 299.895C145.557 291.447 148.806 278.971 149.066 275.592C149.196 272.473 146.337 251.16 143.088 239.463C139.709 231.406 146.597 225.817 146.597 225.817L157.124 221.789Z" fill="#FFAD33"/>
<path d="M178.437 295.609C177.862 295.609 177.397 295.144 177.397 294.57C177.397 293.996 177.862 293.53 178.437 293.53C179.011 293.53 179.476 293.996 179.476 294.57C179.476 295.144 179.011 295.609 178.437 295.609Z" fill="#CC8A29"/>
<path d="M176.749 277.022C176.175 277.022 175.709 276.557 175.709 275.983C175.709 275.408 176.175 274.943 176.749 274.943C177.323 274.943 177.788 275.408 177.788 275.983C177.788 276.557 177.323 277.022 176.749 277.022Z" fill="#101249"/>
<path d="M175.578 253.112C175.004 253.112 174.538 252.647 174.538 252.072C174.538 251.498 175.004 251.033 175.578 251.033C176.152 251.033 176.618 251.498 176.618 252.072C176.618 252.647 176.152 253.112 175.578 253.112Z" fill="#101249"/>
<path d="M170.51 236.863C169.936 236.863 169.471 236.397 169.471 235.823C169.471 235.249 169.936 234.783 170.51 234.783C171.085 234.783 171.55 235.249 171.55 235.823C171.55 236.397 171.085 236.863 170.51 236.863Z" fill="#101249"/>
<path d="M181.426 304.834C181.166 304.834 180.907 304.574 180.907 304.314C180.907 304.054 177.658 272.473 179.087 255.968C180.127 243.232 170.38 229.846 170.25 229.716C170.12 229.457 170.12 229.067 170.38 228.937C170.64 228.807 171.03 228.807 171.16 229.067C171.549 229.586 181.296 242.842 180.257 256.098C178.827 272.473 182.076 303.924 182.076 304.314C181.946 304.444 181.816 304.704 181.426 304.834Z" fill="#101249"/>
<path d="M156.994 218.408C159.723 220.097 163.232 222.436 167.781 224.386L165.701 233.223C160.373 231.664 155.954 226.985 152.055 220.747L156.864 215.938L156.994 218.408Z" fill="#FFCE85"/>
<path d="M167.779 224.386L170.638 229.325L167.129 227.375L167.779 224.386Z" fill="#101249"/>
<path d="M171.55 223.997L170.64 229.325L173.759 225.686L171.55 223.997Z" fill="#101249"/>
<path d="M173.238 222.05C173.238 222.05 181.036 231.537 185.714 243.103C190.653 255.71 191.173 283.781 196.241 296.127C196.241 296.127 194.422 280.922 193.642 265.327C193.122 254.41 192.602 250.121 192.212 245.443C191.692 238.295 181.815 224.259 181.815 224.259C181.815 224.259 179.476 224.779 173.238 222.05Z" fill="#F7F7FA"/>
<path d="M185.716 243.102C182.727 236.604 178.568 228.676 172.98 223.088L171.42 222.568L171.29 218.799C173.889 219.319 179.088 222.048 181.557 226.207C185.456 233.225 185.716 243.102 185.716 243.102Z" fill="#DEDBFF"/>
<path d="M189.484 250.506C187.664 231.012 178.827 220.355 171.289 220.095L171.419 217.496C176.358 217.626 181.036 221.005 184.935 226.983C188.704 232.961 191.303 241.279 192.083 250.376L189.484 250.506Z" fill="#B7B7FF"/>
<path d="M189.694 254.452C188.626 252.418 189.255 249.985 191.098 249.018C192.941 248.05 195.3 248.914 196.368 250.948C197.436 252.981 196.807 255.414 194.964 256.382C193.121 257.35 190.762 256.486 189.694 254.452Z" fill="#8282FF"/>
<path d="M185.562 256.595C183.794 253.227 184.37 249.441 186.848 248.14C189.326 246.838 192.769 248.514 194.538 251.882C196.306 255.25 195.73 259.036 193.252 260.337C190.774 261.638 187.331 259.963 185.562 256.595Z" fill="#B7B7FF"/>
<path d="M151.014 217.371C151.014 217.371 161.931 245.182 162.711 271.824C163.361 294.437 163.101 331.996 168.949 335.895C178.566 342.263 175.447 341.613 172.978 341.873C168.299 342.393 166.48 341.873 162.451 348.241C157.642 355.909 123.723 344.862 122.423 338.884C121.903 336.415 127.361 324.458 132.3 305.744C137.628 285.6 142.307 257.659 137.888 225.298C142.047 222.309 146.336 220.62 146.336 220.62L151.014 217.371Z" fill="#F7F7FA"/>
<path d="M148.026 315.361L133.861 311.072C133.861 311.072 131.001 322.639 133.861 326.797C136.72 330.956 139.969 333.945 146.337 331.996C152.705 330.046 148.026 315.361 148.026 315.361Z" fill="#E1E4F4"/>
<path d="M151.275 218.02L148.156 219.059C148.156 219.059 160.892 255.448 162.062 264.675C162.062 264.675 168.56 234.914 151.275 218.02Z" fill="#DEDBFF"/>
<path d="M146.987 220.229C148.547 213.731 156.474 212.951 156.734 212.822L156.994 215.421L156.864 214.121L156.994 215.421C156.994 215.421 150.626 216.071 149.456 220.749C149.196 221.919 150.756 225.038 152.445 228.547C154.655 232.965 157.514 239.074 159.983 246.741L157.384 247.001C155.045 239.723 152.315 234.005 150.236 229.716C147.897 225.038 146.467 222.309 146.987 220.229Z" fill="#B7B7FF"/>
<path d="M153.096 264.291H152.966C152.056 264.291 151.276 263.641 151.276 262.732C151.146 258.443 151.016 245.447 159.334 244.537C165.052 243.887 169.861 249.086 173.759 259.742C174.019 260.652 173.63 261.562 172.72 261.822C171.81 262.082 170.9 261.692 170.64 260.782C168.821 255.714 164.922 247.136 159.594 247.786C156.085 248.176 154.395 253.115 154.525 262.602C154.525 263.511 153.876 264.291 153.096 264.291Z" fill="#B7B7FF"/>
<path d="M158.552 280.658C157.513 280.788 155.953 280.788 154.654 279.878C153.874 279.358 152.964 278.448 152.704 276.499C152.314 273.12 151.665 267.921 151.665 262.723C151.665 262.073 152.184 261.683 152.704 261.683C153.354 261.683 153.744 262.203 153.744 262.723C153.744 267.791 154.264 272.86 154.784 276.239C154.914 277.149 155.173 277.668 155.693 278.058C156.733 278.708 158.293 278.448 158.942 278.318C159.462 278.188 160.112 278.448 160.242 279.098C160.372 279.618 160.112 280.268 159.462 280.398C159.592 280.398 159.202 280.528 158.552 280.658Z" fill="#DEDBFF"/>
<path d="M172.33 278.318C171.68 278.318 171.29 278.318 171.29 278.318C170.64 278.188 170.251 277.668 170.38 277.148C170.51 276.498 171.03 276.108 171.55 276.238C171.55 276.238 172.85 276.368 173.629 275.589C174.279 274.939 174.539 273.509 174.149 271.69C173.759 269.22 172.72 265.062 171.16 260.773C170.9 260.253 171.29 259.603 171.81 259.343C172.33 259.084 172.98 259.473 173.24 259.993C174.929 264.412 175.969 268.831 176.359 271.3C176.749 273.899 176.359 275.848 175.189 277.018C174.279 277.928 173.24 278.188 172.33 278.318Z" fill="#DEDBFF"/>
<path d="M172.199 276.371V278.06C172.199 278.58 171.809 278.97 171.419 279.1L169.86 279.49C169.21 279.62 168.56 279.1 168.56 278.45L168.69 276.111C168.69 275.461 169.34 275.071 169.99 275.201L171.419 275.461C171.939 275.461 172.199 275.851 172.199 276.371Z" fill="#DEDBFF"/>
<path d="M157.774 278.841L158.164 280.531C158.294 281.05 158.684 281.31 159.204 281.31H160.764C161.413 281.31 161.933 280.661 161.673 280.011L160.894 277.672C160.764 277.022 159.984 276.762 159.464 277.022L158.164 277.672C157.904 277.931 157.645 278.321 157.774 278.841Z" fill="#DEDBFF"/>
<path d="M218.465 98.4543C218.465 98.4543 230.551 104.952 235.62 126.786C240.818 148.619 234.45 159.536 226.263 167.073C218.075 174.611 216.646 183.189 216.646 183.189C216.646 183.189 216.256 181.889 217.945 176.95C217.945 176.95 220.934 177.34 219.245 176.171C213.787 172.402 209.758 114.829 209.758 114.829L218.465 98.4543Z" fill="#101249"/>
<path d="M209.499 105.606C209.499 105.606 227.303 125.88 226.134 148.103C224.704 172.925 215.997 210.614 187.535 216.722C175.319 219.321 149.847 205.935 144.778 192.679C133.862 163.828 117.227 134.067 120.216 127.439C125.414 115.613 183.247 77.0144 209.499 105.606Z" fill="#FFBEAF"/>
<path d="M226.133 143.032C223.274 144.722 220.025 136.404 212.227 138.744C211.447 139.004 210.927 137.964 211.577 137.574C215.086 134.585 221.324 131.986 226.133 143.032Z" fill="#101249"/>
<path opacity="0.3" d="M183.896 163.31C183.376 165.26 179.217 165.779 174.668 164.61C170.12 163.31 166.871 160.711 167.521 158.762C168.04 156.812 172.199 156.162 176.748 157.462C181.296 158.632 184.415 161.361 183.896 163.31Z" fill="#FF7395"/>
<path opacity="0.3" d="M222.885 164.999C222.885 166.689 220.156 168.248 216.777 168.248C213.398 168.378 210.539 166.949 210.539 165.259C210.539 163.57 213.268 162.01 216.647 162.01C220.026 162.01 222.755 163.31 222.885 164.999Z" fill="#FF7395"/>
<path d="M171.808 138.875C173.628 140.955 181.945 133.937 189.353 137.316C190.003 137.706 190.652 136.796 190.133 136.146C187.014 132.897 178.046 128.738 171.808 138.875Z" fill="#101249"/>
<path d="M206.769 179.293C206.769 179.293 200.011 188.65 191.174 177.473C191.304 177.473 198.062 181.242 206.769 179.293Z" fill="#E3747B"/>
<path opacity="0.56" d="M206.769 145.889C206.769 145.889 201.311 157.196 206.899 179.419C206.899 179.419 198.452 181.368 191.304 177.599C191.304 177.599 198.062 161.744 194.423 152.257C194.293 152.257 199.621 146.669 206.769 145.889Z" fill="url(#paint0_linear)"/>
<path d="M199.361 106.647C199.361 106.647 211.967 131.209 230.941 136.148L231.201 118.733C231.201 118.733 238.739 103.657 221.974 88.5821C193.772 63.3698 146.337 58.3013 124.633 90.5315C107.998 115.224 105.789 124.711 105.789 124.711L120.475 190.991C120.475 190.991 142.568 214.774 158.813 195.669C158.813 195.669 145.167 204.117 138.929 180.724C132.691 157.331 137.109 168.248 137.109 168.248C137.109 168.248 144.387 170.587 156.474 158.111C168.56 145.635 167.13 128.87 167.13 128.87C167.13 128.87 195.592 127.7 199.361 106.647Z" fill="#101249"/>
<path d="M145.428 175.787C144.908 162.141 137.24 155.383 131.262 157.463C122.165 160.712 120.086 192.682 140.489 191.122C145.818 190.603 146.078 182.285 145.428 175.787Z" fill="#FFBEAF"/>
<path d="M128.532 170.197C128.922 168.378 129.832 166.558 131.132 165.389C131.781 164.739 132.561 164.349 133.341 164.349C134.121 164.349 134.901 164.609 135.55 165.259C136.72 166.428 137.5 168.118 138.02 169.937C138.539 171.627 138.929 173.446 139.189 175.396L140.359 174.746C139.319 173.966 138.15 173.836 137.11 173.836C136.07 173.836 134.901 174.226 133.991 174.746C133.081 175.266 132.171 176.046 131.652 177.085C131.132 178.125 131.002 179.295 131.132 180.334C131.262 181.374 131.652 182.414 132.301 183.323C132.951 184.233 133.991 184.753 135.03 184.883C136.07 185.013 137.11 184.883 138.02 184.493C138.929 184.103 139.839 183.323 140.099 182.414C139.709 183.323 138.799 183.843 137.89 184.103C136.98 184.363 135.94 184.363 135.16 184.233C134.251 183.973 133.471 183.453 133.081 182.803C132.561 182.024 132.301 181.114 132.301 180.334C132.171 178.515 133.081 176.825 134.641 176.176C135.42 175.786 136.33 175.526 137.11 175.526C138.02 175.526 138.799 175.656 139.449 176.176C139.709 176.435 140.229 176.305 140.489 176.046C140.619 175.916 140.619 175.656 140.619 175.526C140.359 173.576 139.969 171.757 139.319 169.937C138.669 168.118 137.89 166.169 136.2 164.869C135.42 164.219 134.251 163.699 133.211 163.959C132.171 164.089 131.262 164.739 130.612 165.519C129.312 166.428 128.532 168.378 128.532 170.197Z" fill="#E3747B"/>
<path d="M139.058 188.907C138.798 189.946 139.578 190.986 140.618 191.246C141.658 191.506 142.697 190.726 142.957 189.686C143.217 188.647 142.437 187.607 141.398 187.347C140.228 187.087 139.188 187.737 139.058 188.907Z" fill="#FFCE85"/>
<path d="M140.359 198.914C141.658 198.914 142.698 197.874 142.568 196.575L142.308 192.026C142.308 191.376 141.658 190.856 141.008 190.856H140.359C139.709 190.856 139.189 191.246 139.059 191.896L138.149 196.315C138.019 197.614 139.059 198.914 140.359 198.914Z" fill="#FFCE85"/>
<path d="M183.897 156.543C182.728 157.453 181.038 157.063 180.129 155.893C179.219 154.724 179.479 153.034 180.778 152.125C181.948 151.215 183.637 151.475 184.547 152.774C185.327 153.944 185.067 155.633 183.897 156.543Z" fill="#101249"/>
<path d="M184.026 155.639C183.636 155.899 183.246 155.769 182.986 155.509C182.726 155.119 182.856 154.729 183.116 154.47C183.506 154.21 183.896 154.34 184.156 154.6C184.416 154.989 184.286 155.379 184.026 155.639Z" fill="white"/>
<path d="M214.828 160.189C213.658 161.098 211.969 160.709 211.059 159.539C210.149 158.369 210.409 156.68 211.709 155.77C212.878 154.86 214.568 155.12 215.478 156.42C216.387 157.589 216.127 159.279 214.828 160.189Z" fill="#101249"/>
<path d="M214.956 159.283C214.566 159.542 214.176 159.412 213.916 159.153C213.656 158.763 213.786 158.373 214.046 158.113C214.436 157.853 214.826 157.983 215.086 158.243C215.345 158.633 215.346 159.023 214.956 159.283Z" fill="white"/>
<path d="M127.492 241.672C127.882 256.488 131.391 285.469 139.579 297.165C139.579 297.165 154.264 284.429 151.145 282.61L147.506 249.21C147.506 249.21 144.127 229.066 137.889 225.167C137.889 225.167 127.232 229.846 127.492 241.672Z" fill="#DEDBFF"/>
<path d="M186.238 283.263C181.819 284.042 180.909 297.818 186.628 297.168C192.476 296.519 188.707 282.873 186.238 283.263Z" fill="#8282FF"/>
<path d="M187.014 293.525C190.653 298.074 200.01 291.706 200.14 291.836C200.14 291.836 204.038 292.745 205.208 292.745C206.118 293.915 207.417 294.955 208.977 296.514C211.056 298.464 212.876 296.904 211.836 295.604C211.316 294.955 210.407 293.525 210.407 293.525C210.407 293.525 213.915 295.994 215.345 294.045C216.255 292.745 214.175 291.706 213.136 288.587C214.435 289.236 215.475 290.666 217.424 290.276C218.854 290.016 219.764 288.327 219.114 287.807C217.035 286.377 214.305 282.998 214.305 282.998C214.305 282.998 216.385 284.038 218.594 283.648C219.764 283.388 220.543 281.699 219.374 281.049C217.944 280.269 216.255 280.139 215.085 278.71C213.915 277.28 213.266 276.76 212.616 276.76C211.966 276.76 207.807 276.11 206.768 275.98C205.728 275.85 203.649 275.331 202.999 276.11C202.349 276.89 200.53 278.45 196.891 279.879C196.241 280.139 181.555 284.298 181.555 284.298L182.725 293.265L187.014 293.525Z" fill="#FFBEAF"/>
<path d="M212.877 276.894C211.447 276.504 210.148 276.114 208.718 275.854C208.068 275.724 207.289 275.594 206.639 275.464C205.989 275.334 205.209 275.204 204.43 275.204C204.04 275.204 203.52 275.334 203.13 275.594C203 275.724 202.87 275.854 202.87 275.854L202.74 275.984C202.61 276.114 202.48 276.244 202.35 276.374C201.83 276.894 201.31 277.283 200.791 277.673C199.621 278.453 198.451 279.233 197.282 280.013C198.711 279.623 200.011 279.103 201.31 278.453C201.96 278.063 202.61 277.673 203.13 277.154C203.26 277.024 203.39 276.894 203.52 276.764L203.78 276.504C203.78 276.504 203.78 276.504 203.91 276.374C204.04 276.244 204.3 276.244 204.559 276.244C205.209 276.244 205.859 276.374 206.509 276.374C207.159 276.504 207.938 276.504 208.718 276.634C210.018 276.894 211.447 276.894 212.877 276.894Z" fill="#E3747B"/>
<path d="M210.667 293.656C210.407 293.266 210.277 292.746 210.277 292.226C210.147 291.706 210.017 291.186 209.757 290.667C209.237 289.627 208.457 288.847 207.548 288.327C206.638 287.807 205.468 287.548 204.558 287.418L202.999 287.288C202.479 287.288 202.089 287.158 201.569 286.898C201.829 287.418 202.349 287.677 202.869 287.807C203.389 287.937 203.909 288.197 204.298 288.327C205.208 288.587 206.118 288.847 207.028 289.367C207.807 289.757 208.587 290.407 209.107 291.056C209.367 291.446 209.627 291.836 209.887 292.226C209.887 292.876 210.147 293.266 210.667 293.656Z" fill="#E3747B"/>
<path d="M213.395 288.716C212.875 287.806 212.226 287.026 211.576 286.377C211.186 285.987 210.926 285.597 210.536 285.337C210.146 284.947 209.626 284.687 209.236 284.427C208.327 283.907 207.417 283.648 206.377 283.388C205.468 283.128 204.428 283.128 203.518 282.738C203.778 283.258 204.298 283.388 204.688 283.647C205.078 283.907 205.598 284.037 205.987 284.297C206.897 284.687 207.807 284.947 208.717 285.337C209.107 285.467 209.626 285.727 210.016 285.857C210.406 286.117 210.796 286.377 211.186 286.767C211.966 287.416 212.745 287.936 213.395 288.716Z" fill="#E3747B"/>
<path d="M214.567 283.128C214.307 282.868 214.047 282.608 213.787 282.348C213.657 282.218 213.657 282.088 213.527 281.958C213.397 281.828 213.267 281.568 213.137 281.438C212.617 280.918 211.838 280.399 211.188 280.139C210.538 279.879 209.758 279.619 208.979 279.489C208.199 279.359 207.549 279.359 206.769 279.359C208.069 280.139 209.498 280.658 210.798 281.178C211.448 281.438 212.098 281.698 212.747 281.958C212.877 282.088 213.007 282.088 213.137 282.218C213.267 282.348 213.397 282.478 213.527 282.608C213.917 282.738 214.177 282.998 214.567 283.128Z" fill="#E3747B"/>
<path d="M230.422 293.915H305.539L309.698 244.92C309.828 242.841 308.268 241.021 306.059 241.021H238.09C236.27 241.021 234.711 242.451 234.451 244.27L230.422 293.915Z" fill="#101249"/>
<path d="M232.502 293.915H307.749L311.907 244.92C312.037 242.84 310.478 241.021 308.268 241.021H240.299C238.48 241.021 236.92 242.451 236.66 244.27L232.502 293.915Z" fill="#101249"/>
<path d="M194.943 293.918H274.219V296.388C274.219 297.817 273.05 298.857 271.75 298.857H197.543C196.113 298.857 195.073 297.687 195.073 296.388V293.918H194.943Z" fill="#101249"/>
<path d="M232.503 293.918H307.49V296.388C307.49 297.817 306.32 298.857 305.021 298.857H234.972C233.542 298.857 232.503 297.687 232.503 296.388V293.918Z" fill="#101249"/>
<path d="M228.341 431.539H305.017C310.216 431.539 315.024 429.459 318.663 425.82C322.302 422.182 324.251 417.243 324.251 412.175L323.342 305.997C323.342 304.177 321.782 302.618 319.963 302.618C318.143 302.618 316.584 304.177 316.584 305.997L317.493 412.175C317.493 415.554 316.194 418.673 313.855 421.012C311.515 423.351 308.396 424.651 305.017 424.651H228.341C226.521 424.651 224.962 426.21 224.962 428.03C224.962 429.979 226.521 431.539 228.341 431.539Z" fill="#3D3DCC"/>
<path d="M204.822 431.539H230.424C234.713 431.539 238.742 429.849 241.731 426.86C244.72 423.871 246.409 419.842 246.409 415.554L245.759 305.997C245.759 304.177 244.2 302.618 242.381 302.618C240.561 302.618 239.002 304.177 239.002 305.997L239.651 415.554C239.651 418.023 238.742 420.362 236.922 422.052C235.233 423.741 232.893 424.781 230.424 424.781H204.822C203.003 424.781 201.443 426.34 201.443 428.16C201.443 429.979 203.003 431.539 204.822 431.539Z" fill="#3D3DCC"/>
<path d="M221.324 307.04H327.632C328.671 307.04 329.451 306.261 329.451 305.221V300.802C329.451 299.763 328.671 298.983 327.632 298.983H221.324C220.284 298.983 219.505 299.763 219.505 300.802V305.221C219.505 306.261 220.284 307.04 221.324 307.04Z" fill="#8282FF"/>
<path d="M189.225 307.043H255.634C256.674 307.043 257.454 306.263 257.454 305.223V300.805C257.454 299.765 256.674 298.985 255.634 298.985H189.225C188.185 298.985 187.405 299.765 187.405 300.805V305.223C187.535 306.263 188.315 307.043 189.225 307.043Z" fill="#ADA6FF"/>
<path d="M135.162 288.068C136.981 293.527 140.62 299.115 142.569 300.414C148.418 304.053 170.771 301.584 186.626 297.165C184.157 295.996 182.727 284.299 186.236 283.26C186.236 283.26 179.218 284.949 165.832 284.169C162.453 283.91 156.215 281.96 150.107 282.61L135.162 288.068Z" fill="#DEDBFF"/>
<path d="M204.561 193.841C199.233 193.451 194.034 192.672 189.096 191.242C186.627 190.592 184.157 189.553 181.818 188.513C179.479 187.343 177.269 185.914 175.19 184.354C176.88 186.434 178.829 188.253 181.168 189.683C183.508 191.112 185.977 192.152 188.576 192.802C191.175 193.451 193.904 193.971 196.504 194.101C199.233 194.361 201.962 194.361 204.561 193.841Z" fill="#E3747B"/>
<path d="M178.566 182.407C177.786 182.277 177.006 182.407 176.356 182.667C175.706 182.927 175.057 183.447 174.537 183.966C173.497 185.006 172.847 186.436 172.847 187.995C173.497 187.475 173.887 186.956 174.277 186.436C174.667 185.916 175.187 185.526 175.576 185.006C176.486 184.226 177.396 183.447 178.566 182.407Z" fill="#E3747B"/>
<path d="M171.29 219.321L171.16 222.96L174.929 229.328C174.929 229.328 176.488 226.339 176.098 224.91L171.29 218.022V219.321Z" fill="#FFCE85"/>
<path d="M55.2165 201.124C61.0647 203.203 63.0141 205.022 63.0141 205.022C90.9556 221.397 102.912 284.818 102.912 284.818C102.912 284.818 131.243 294.435 140.73 300.413C149.828 306.002 150.348 314.839 150.348 314.839L153.077 389.566C148.138 389.826 149.438 395.544 149.438 395.544C149.438 395.544 89.3961 387.617 82.3782 383.068C76.7899 379.429 73.021 370.982 71.8514 363.184C70.1619 352.008 53.1371 223.737 52.0974 217.758C51.3177 213.21 50.7978 205.282 55.2165 201.124Z" fill="#6868FF"/>
<path d="M150.348 315.747C150.088 310.809 147.879 305.87 144.24 302.231C142.42 300.412 140.211 298.982 138.002 297.812C135.792 296.643 133.583 295.473 131.244 294.434C126.695 292.354 122.017 290.405 117.468 288.585C112.789 286.766 108.111 284.946 103.432 283.387L104.472 284.557C103.042 277.019 101.093 269.611 99.0136 262.203C96.8043 254.926 94.2051 247.648 91.086 240.63C89.5265 237.121 87.837 233.612 86.0176 230.363C84.1981 226.984 82.1187 223.735 79.9094 220.616C75.4908 214.378 70.0324 208.66 63.1445 205.021C69.5126 209.309 74.1912 215.288 78.2199 221.656C82.2487 228.024 85.4977 234.912 88.3568 241.8C91.216 248.817 93.6852 255.965 95.8945 263.113C98.1039 270.261 100.053 277.669 101.613 285.076L101.743 285.986L102.523 286.246C107.201 287.806 111.88 289.495 116.558 291.185C121.237 292.874 125.915 294.563 130.464 296.513C132.803 297.423 135.013 298.462 137.222 299.502C139.431 300.542 141.641 301.711 143.46 303.271C147.099 306.26 149.568 310.809 150.348 315.747Z" fill="#5144E6"/>
<path d="M120.976 301.323C128.644 299.764 149.827 310.55 150.347 314.709C150.997 319.648 152.816 352.787 154.636 362.664C156.455 372.541 160.874 375.011 165.813 374.361L166.462 395.934C162.434 396.194 155.676 396.454 149.438 395.414C140.34 393.855 132.023 388.916 127.344 372.671C126.175 368.643 116.298 317.438 115.648 309.381C115.258 304.442 116.947 302.103 120.976 301.323Z" fill="#5144E6"/>
</g>
<defs>
<linearGradient id="paint0_linear" x1="200.586" y1="151.993" x2="198.892" y2="176.012" gradientUnits="userSpaceOnUse">
<stop stop-color="#FFBEAF"/>
<stop offset="1" stop-color="#E3747B"/>
</linearGradient>
</defs>
</svg>
