<?xml version="1.0" encoding="utf-8"?>
<!-- Generator: Adobe Illustrator 19.2.1, SVG Export Plug-In . SVG Version: 6.00 Build 0)  -->
<svg version="1.1" id="layer" xmlns="http://www.w3.org/2000/svg" xmlns:xlink="http://www.w3.org/1999/xlink" x="0px" y="0px"
	 viewBox="0 0 652 652" style="enable-background:new 0 0 652 652;" xml:space="preserve">
<style type="text/css">
	.st0{fill:#E5007D;}
	.st1{fill:#878787;}
</style>
<path class="st0" d="M199,360h-19.7v-37c0-6.4-0.8-10.9-2.4-13.5c-1.6-2.6-4.4-4-8.4-4c-1.1,0-2.5,0.3-4.4,0.8
	c-1.9,0.5-3.5,1.2-4.7,2c0.6,2,1,4.2,1.2,6.4c0.2,2.3,0.3,4.7,0.3,7.2v38H141v-37c0-6.4-0.8-10.9-2.4-13.5c-1.6-2.6-4.4-4-8.4-4
	c-1.2,0-2.5,0.1-3.8,0.2c-1.3,0.1-2.6,0.3-3.8,0.5V360h-19.7v-67.3c1.7-0.4,3.6-0.9,5.9-1.4c2.3-0.5,4.6-0.9,7.2-1.3
	c2.5-0.4,5.1-0.7,7.7-0.9c2.6-0.2,5.3-0.3,7.8-0.3c5,0,9.1,0.6,12.2,1.9c3.1,1.3,5.7,2.8,7.7,4.6c2.8-2,6.1-3.6,9.7-4.8
	c3.7-1.1,7-1.7,10.1-1.7c5.6,0,10.1,0.8,13.7,2.3c3.6,1.5,6.4,3.7,8.5,6.6c2.1,2.8,3.6,6.2,4.4,10.1c0.8,3.9,1.2,8.2,1.2,13V360z
	 M93,345.1l-2.8,16.3c-5.7-0.1-10.4-0.7-14-1.9c-3.6-1.1-6.4-2.8-8.5-4.8c-2.1-2.1-3.5-4.6-4.2-7.5c-0.7-3-1.1-6.3-1.1-10v-76.7
	l19.7-3.2v75.9c0,1.8,0.1,3.4,0.4,4.8c0.3,1.4,0.8,2.6,1.5,3.6c0.7,1,1.8,1.8,3.2,2.4C88.8,344.5,90.7,344.9,93,345.1 M235.3,221.1
	H26.2v209.2h209.2V221.1z"/>
<path class="st1" d="M623.7,310.6c-1.6-4.5-4-8.3-7.1-11.5c-3.1-3.1-6.9-5.6-11.4-7.3c-4.5-1.7-9.6-2.6-15.4-2.6
	c-2.4,0-4.9,0.1-7.5,0.3c-2.6,0.2-5.2,0.5-7.7,0.9c-2.5,0.4-4.9,0.8-7.2,1.3s-4.3,1-6.1,1.5V385h19.7v-26.2c2.2,1,4.5,1.7,6.9,2.3
	c2.4,0.5,4.9,0.8,7.7,0.8c4.9,0,9.3-0.9,13.1-2.6c3.8-1.8,7-4.2,9.5-7.4c2.6-3.2,4.5-7,5.8-11.4c1.3-4.4,2-9.3,2-14.7
	C626.2,320.1,625.3,315.1,623.7,310.6 M592,345.1c-2,0-4-0.3-6-0.8c-2-0.5-3.6-1.2-4.8-2v-35.6c1-0.2,2.2-0.3,3.7-0.5
	c1.5-0.1,3.1-0.2,4.9-0.2c5.4,0,9.4,1.8,12.2,5.5c2.7,3.7,4.1,8.5,4.1,14.6C606,338.8,601.3,345.1,592,345.1 M548.1,290.8h-19.7
	v53.8c-1.2,0.2-2.6,0.3-4.2,0.5c-1.6,0.1-3.1,0.2-4.5,0.2c-4.6,0-7.7-1.4-9.4-4.2c-1.7-2.8-2.5-7.4-2.5-13.8v-36.4H488v38.8
	c0,4.8,0.5,9.1,1.5,13.1c1,4,2.6,7.4,4.9,10.3c2.3,2.9,5.4,5.1,9.3,6.7c3.9,1.6,8.9,2.4,14.8,2.4c5.8,0,11.4-0.4,16.7-1.3
	c5.3-0.8,9.6-1.7,13-2.7V290.8z M455,340c-2.4,3.6-5.9,5.4-10.4,5.4c-4.5,0-8-1.8-10.5-5.4c-2.5-3.6-3.7-8.4-3.7-14.5
	c0-6.1,1.2-10.9,3.7-14.4c2.5-3.5,6-5.2,10.5-5.2c4.5,0,8,1.7,10.4,5.2c2.4,3.5,3.6,8.3,3.6,14.4C458.6,331.6,457.4,336.5,455,340
	 M476.2,310.6c-1.7-4.5-4-8.3-7-11.5c-3-3.2-6.6-5.6-10.8-7.4c-4.2-1.8-8.8-2.6-13.8-2.6c-5,0-9.5,0.9-13.7,2.6
	c-4.2,1.8-7.8,4.2-10.9,7.4c-3,3.2-5.4,7-7.2,11.5c-1.7,4.5-2.6,9.5-2.6,15c0,5.5,0.8,10.5,2.5,15c1.7,4.5,4,8.4,7,11.7
	c3,3.2,6.6,5.7,10.8,7.5c4.2,1.8,8.9,2.6,14,2.6c5.2,0,9.9-0.9,14.1-2.6c4.2-1.8,7.8-4.3,10.8-7.5c3-3.2,5.3-7.1,6.9-11.7
	c1.6-4.6,2.4-9.6,2.4-15C478.7,320.1,477.9,315.1,476.2,310.6 M409.6,292c-1.1-0.4-2.3-0.8-3.8-1.1c-1.5-0.3-3-0.6-4.5-0.8
	c-1.5-0.2-3-0.4-4.5-0.5c-1.5-0.1-2.8-0.2-3.8-0.2c-5.9,0-11.3,0.6-16.1,1.7c-4.8,1.1-9,2.3-12.5,3.5v66H384v-53.2
	c0.9-0.3,2.2-0.5,3.9-0.7c1.7-0.2,3.2-0.3,4.4-0.3c2.7,0,5.3,0.2,7.7,0.7c2.4,0.5,4.5,1,6.2,1.4L409.6,292z M351.1,293.2
	c-1.8-0.5-3.8-1-6-1.5c-2.3-0.5-4.6-0.9-7.1-1.3c-2.5-0.3-5-0.6-7.5-0.9c-2.5-0.2-5-0.3-7.3-0.3c-5.6,0-10.6,0.8-15,2.4
	c-4.4,1.6-8.1,4-11.2,7c-3,3-5.4,6.6-7,10.8c-1.6,4.2-2.4,8.9-2.4,14c0,10.2,2.6,18.2,7.7,23.9c5.1,5.7,12.5,8.5,22.1,8.5
	c2.6,0,5.1-0.2,7.3-0.7c2.3-0.5,4.4-1.2,6.6-2.2v2.5c0,3.9-1.2,7.1-3.5,9.5c-2.3,2.5-6.3,3.7-12,3.7c-4.3,0-8.2-0.4-11.6-1.1
	c-3.4-0.7-6.6-1.7-9.7-2.9l-3.4,16.6c3.6,1.2,7.5,2.2,11.8,3c4.2,0.8,8.5,1.1,12.7,1.1c12.1,0,21-2.8,26.8-8.3
	c5.8-5.5,8.7-14,8.7-25.4V293.2z M311.6,310.3c2.6-3.4,6.4-5.2,11.7-5.2c1.8,0,3.3,0.1,4.6,0.2c1.3,0.1,2.5,0.3,3.4,0.5v31.5
	c-1.2,0.7-2.7,1.3-4.5,1.9c-1.8,0.5-3.7,0.8-5.7,0.8c-8.9,0-13.4-5.5-13.4-16.6C307.7,318.1,309,313.8,311.6,310.3"/>
</svg>
